<svg width="32" height="32" viewBox="0 0 32 32" fill="none" xmlns="http://www.w3.org/2000/svg">
<path d="M30 32C26.3852 32 22.7926 31.1111 19.2222 29.3333C15.6519 27.5556 12.4444 25.2444 9.6 22.4C6.75555 19.5556 4.44444 16.3481 2.66667 12.7778C0.888889 9.20741 0 5.61481 0 2C0 1.43704 0.192593 0.962963 0.577778 0.577778C0.962963 0.192593 1.43704 0 2 0H8.22222C8.63704 0 9 0.140741 9.31111 0.422222C9.62222 0.703704 9.82222 1.08148 9.91111 1.55556L11.1111 7.15556C11.1704 7.57037 11.163 7.94815 11.0889 8.28889C11.0148 8.62963 10.8593 8.91852 10.6222 9.15555L6.17778 13.6444C7.83704 16.4 9.6963 18.8 11.7556 20.8444C13.8148 22.8889 16.1481 24.6222 18.7556 26.0444L22.9778 21.6889C23.2741 21.363 23.6148 21.1333 24 21C24.3852 20.8667 24.7704 20.8444 25.1556 20.9333L30.4444 22.0889C30.8889 22.1778 31.2593 22.4 31.5556 22.7556C31.8519 23.1111 32 23.5259 32 24V30C32 30.563 31.8074 31.037 31.4222 31.4222C31.037 31.8074 30.563 32 30 32Z" fill="#F9FBFE"/>
</svg>
